<?xml version="1.0" standalone="no"?><!DOCTYPE svg PUBLIC "-//W3C//DTD SVG 1.1//EN" "http://www.w3.org/Graphics/SVG/1.1/DTD/svg11.dtd"><svg t="1608620338964" class="icon" viewBox="0 0 1024 1024" version="1.1" xmlns="http://www.w3.org/2000/svg" p-id="8242" xmlns:xlink="http://www.w3.org/1999/xlink" width="200" height="200"><defs><style type="text/css"></style></defs><path d="M354.4576 163.8912h315.10528V83.77344H354.4576v80.11776z m472.60672 0h79.0016c21.38112 0 39.15776 18.61632 39.15776 42.3936v695.21408c0 23.66464-17.94048 42.3936-39.54688 42.3936H118.36416c-21.66784 0-39.55712-18.66752-39.55712-42.3936V206.27456c0-23.77728 17.77664-42.38336 39.65952-42.38336h80.22016V83.77344H118.4768C52.61312 83.77344 0 138.78272 0 206.27456v695.22432C0 968.99072 52.72576 1024 118.36416 1024h787.31264C971.23328 1024 1024 968.94976 1024 901.49888V206.27456c0-67.4816-52.50048-122.50112-117.94432-122.50112h-78.99136v80.11776zM236.29824 39.8336c0-22.00576 17.50016-39.8336 39.39328-39.8336 21.77024 0 39.38304 17.83808 39.38304 39.8336v168.22272c0 22.00576-17.50016 39.8336-39.38304 39.8336-21.78048 0-39.39328-17.82784-39.39328-39.8336V39.8336z m472.60672-0.0512c0-21.94432 17.50016-39.77216 39.44448-39.77216 21.7088 0 39.3216 17.83808 39.3216 39.77216v168.11008c0 21.94432-17.43872 39.7824-39.3216 39.7824-21.78048 0-39.44448-17.83808-39.44448-39.7824V39.7824zM236.29824 487.39328c0-22.1184 17.7152-40.05888 39.66976-40.05888h472.04352c21.93408 0 39.65952 17.77664 39.65952 40.05888 0 22.10816-17.664 40.05888-39.65952 40.05888H275.968c-21.88288 0-39.66976-17.78688-39.66976-40.05888z m0 206.3872c0-22.1184 17.7152-40.05888 39.66976-40.05888h472.04352c21.93408 0 39.65952 17.77664 39.65952 40.05888 0 22.10816-17.664 40.05888-39.65952 40.05888H275.968c-21.88288 0-39.66976-17.77664-39.66976-40.05888z" fill="#2c2c2c" p-id="8243"></path></svg>