<?xml version="1.0" standalone="no"?><!DOCTYPE svg PUBLIC "-//W3C//DTD SVG 1.1//EN" "http://www.w3.org/Graphics/SVG/1.1/DTD/svg11.dtd"><svg t="1608620524158" class="icon" viewBox="0 0 1024 1024" version="1.1" xmlns="http://www.w3.org/2000/svg" p-id="11275" xmlns:xlink="http://www.w3.org/1999/xlink" width="200" height="200"><defs><style type="text/css"></style></defs><path d="M921.6 51.2a51.2 51.2 0 0 1 51.2 51.2v819.2a51.2 51.2 0 0 1-51.2 51.2H102.4a51.2 51.2 0 0 1-51.2-51.2V102.4a51.2 51.2 0 0 1 51.2-51.2h819.2m0-51.2H102.4a102.4 102.4 0 0 0-102.4 102.4v819.2a102.4 102.4 0 0 0 102.4 102.4h819.2a102.4 102.4 0 0 0 102.4-102.4V102.4a102.4 102.4 0 0 0-102.4-102.4z" fill="#2c2c2c" p-id="11276"></path><path d="M288.768 578.048H218.624V313.344a237.568 237.568 0 0 1-90.624 51.2v-61.44a204.8 204.8 0 0 0 59.904-34.304 133.12 133.12 0 0 0 44.032-58.368h56.832zM600.576 512v65.024H354.304a166.4 166.4 0 0 1 24.064-69.632 442.88 442.88 0 0 1 78.848-88.064A535.04 535.04 0 0 0 515.584 358.4a78.336 78.336 0 0 0 14.336-43.008 51.2 51.2 0 0 0-12.8-36.352 54.784 54.784 0 0 0-69.632 0 67.072 67.072 0 0 0-14.848 44.032l-70.144-4.096a114.688 114.688 0 0 1 39.424-83.456 129.536 129.536 0 0 1 82.432-25.088 118.784 118.784 0 0 1 84.992 29.184 94.72 94.72 0 0 1 31.232 72.704 122.368 122.368 0 0 1-9.216 47.104 187.392 187.392 0 0 1-28.16 47.104 443.392 443.392 0 0 1-45.568 46.592c-22.528 20.48-36.352 33.792-42.496 40.448A144.384 144.384 0 0 0 460.8 512zM614.4 481.28l67.584-8.704a66.048 66.048 0 0 0 17.92 39.936 47.104 47.104 0 0 0 34.304 13.824 51.2 51.2 0 0 0 36.864-16.384 66.048 66.048 0 0 0 14.848-44.544 60.416 60.416 0 0 0-14.336-41.984 46.592 46.592 0 0 0-34.304-13.824 118.784 118.784 0 0 0-32.256 5.632L712.704 358.4a62.464 62.464 0 0 0 43.52-12.288 45.056 45.056 0 0 0 14.848-38.912 40.448 40.448 0 0 0-10.752-29.696 40.96 40.96 0 0 0-29.184-10.752 41.472 41.472 0 0 0-30.72 12.288 58.368 58.368 0 0 0-15.872 36.352L620.032 307.2a142.848 142.848 0 0 1 20.48-51.2 88.576 88.576 0 0 1 37.888-31.232 126.464 126.464 0 0 1 54.784-11.264 109.056 109.056 0 0 1 82.944 32.768 83.968 83.968 0 0 1-27.136 138.24 83.456 83.456 0 0 1 51.2 30.208 85.504 85.504 0 0 1 18.944 56.832 109.568 109.568 0 0 1-35.328 81.92 130.56 130.56 0 0 1-169.984 5.632A109.568 109.568 0 0 1 614.4 481.28z" fill="#2c2c2c" p-id="11277"></path><path d="M204.8 665.6h512v51.2H204.8z" fill="#2c2c2c" p-id="11278"></path><path d="M204.8 819.2h307.2v51.2H204.8z" fill="#2c2c2c" p-id="11279"></path></svg>